<svg xmlns="http://www.w3.org/2000/svg" width="24" height="24" fill="currentColor" viewBox="0 0 24 24"><path fill="#368ECE" d="M10.2 2H2.8a.8.8 0 0 0-.8.8v7.4a.8.8 0 0 0 .8.8h7.4a.8.8 0 0 0 .8-.8V2.8a.8.8 0 0 0-.8-.8Z"/><path fill="#D45900" d="M21.2 13h-7.399a.8.8 0 0 0-.8.8v7.4a.8.8 0 0 0 .8.8h7.4a.8.8 0 0 0 .8-.8v-7.4a.8.8 0 0 0-.8-.8Z"/><path fill="#AC7300" d="m5.979 12.781-3.934 3.934a.8.8 0 0 0 0 1.132L5.98 21.78a.8.8 0 0 0 1.132 0l3.934-3.933a.8.8 0 0 0 0-1.132L7.11 12.78a.8.8 0 0 0-1.132 0Z"/><path fill="#4E925A" d="M17.5 11a4.5 4.5 0 1 0 0-9 4.5 4.5 0 0 0 0 9Z"/></svg>